<svg width="38" height="38" viewBox="0 0 38 38" fill="none" xmlns="http://www.w3.org/2000/svg">
<rect width="38" height="38" rx="3" fill="white"/>
<path fill-rule="evenodd" clip-rule="evenodd" d="M27.0066 10H10.9934C10.4447 10 10 10.4446 10 10.9934V27.0066C10 27.5552 10.4447 28 10.9934 28H19.6143V21.0295H17.2686V18.3129H19.6143V16.3095C19.6143 13.9846 21.0343 12.7186 23.1083 12.7186C24.1018 12.7186 24.9556 12.7926 25.2044 12.8256V15.2553L23.766 15.256C22.6381 15.256 22.4197 15.792 22.4197 16.5785V18.3129H25.1098L24.7595 21.0295H22.4197V28H27.0066C27.5552 28 28 27.5552 28 27.0066V10.9934C28 10.4446 27.5552 10 27.0066 10Z" fill="#1877F2"/>
</svg>
