<svg width="1242" height="370" viewBox="0 0 1242 370" fill="none" xmlns="http://www.w3.org/2000/svg">
<path d="M1082 381.96C1082 381.96 1091.97 271.436 1094.13 263.735C1096.29 256.034 1094.13 231.084 1094.13 231.084L1123.43 212.294L1153.35 208.906C1153.35 208.906 1158.29 203.977 1166.62 220.303C1174.94 236.628 1194.58 340.376 1185.64 370.255C1176.69 400.134 1082 383.5 1082 383.5V381.96Z" fill="#334FA2"/>
<path d="M1098.88 239.524L1094.99 245.13C1094.99 245.13 1099.13 255.48 1127.26 246.485C1155.45 237.491 1159.03 209.707 1159.03 209.707H1138.55L1118.99 231.885L1098.88 239.524Z" fill="#2A2769"/>
<path d="M1003.75 175.639C1003.75 175.639 1008.81 144.836 1021.15 137.012C1033.49 129.188 1085.12 111.938 1099.93 115.45C1114.73 118.961 1121.95 122.226 1135.71 148.902C1149.47 175.577 1159.58 208.536 1159.58 208.536C1159.58 208.536 1147.86 234.719 1123.49 242.419C1099.13 250.12 1093.88 244.268 1093.88 244.268C1093.88 244.268 1089.19 228.25 1078.77 209.768C1068.34 191.286 1050.7 172.805 1038.98 175.577C1027.26 178.349 1003.75 175.639 1003.75 175.639Z" fill="#EA8461"/>
<path d="M646.015 89.3901C645.83 89.3901 645.706 89.3901 645.583 89.3901C645.398 89.3901 645.274 89.3901 645.151 89.3901C604.497 89.8214 594.319 118.776 594.319 139.414C594.319 160.237 604.683 175.146 613.874 184.941C623.066 194.675 625.102 208.967 625.102 208.967H645.151H646.076H666.126C666.126 208.967 668.161 194.675 677.353 184.941C686.545 175.207 696.909 160.237 696.909 139.414C696.909 118.776 686.668 89.8214 646.015 89.3901Z" fill="#EA8461"/>
<path d="M273.902 0L270.2 0.492848C270.447 2.58745 270.694 1.41694 271.126 2.34103L274.149 8.37841C274.272 8.56323 274.334 8.80965 274.334 9.05608V65.1791C274.334 65.4871 274.21 65.7952 274.025 66.1032L240.959 109.782C240.404 110.459 240.589 111.445 241.33 111.938L298.578 148.409C299.071 148.717 299.318 149.333 299.256 149.887C299.133 150.811 298.393 150.565 299.01 151.982L302.403 151.489C302.896 151.489 303.328 151.243 303.575 150.811L337.874 100.479C338.059 100.233 338.121 99.9249 338.121 99.6168V29.6941C338.121 29.078 337.751 28.5852 337.257 28.3387L274.704 0.123212C274.457 0 274.149 0 273.902 0Z" fill="#8FABD9"/>
<path d="M235.839 111.568L270.2 66.1649V0.49292L333.926 29.8174V100.664L298.948 152.044L235.839 111.568Z" fill="#9EB6DF"/>
<path d="M271.989 7.02319L331.644 35.1771V98.6312L272.298 66.1649L271.989 7.02319Z" fill="#2A2769"/>
<path d="M174.52 118.53C174.52 118.53 176.864 104.36 175.877 83.5376C175.877 83.5376 193.89 81.9975 204.871 74.4199L219.06 89.2054C219.06 89.2054 226.154 83.784 225.352 72.695C224.55 61.6059 216.592 56.431 208.881 57.5399C201.17 58.6488 192.718 55.5685 185.315 48.4222C177.912 41.2759 165.575 46.4508 159.899 50.8865C154.224 55.3221 152.126 64.7478 152.126 64.7478C152.126 64.7478 137.937 65.2406 128.807 74.9128C119.677 84.5849 116.963 100.91 126.216 110.644C135.47 120.378 140.097 118.776 140.282 126.169C140.467 133.562 140.59 139.229 147.191 139.414C153.792 139.599 157.987 134.363 168.474 137.874C168.474 137.874 156.259 130.789 154.594 121.364C152.928 111.938 163.971 111.199 166.438 115.326C168.906 119.454 172.36 122.349 174.52 118.53Z" fill="#2A2769"/>
<path d="M0.5 374.5C0.5 374.5 76.2477 266.815 94.1377 245.869C112.028 224.923 135.778 224.615 135.778 224.615L162.922 238.785C162.922 238.785 217.517 252.338 167.549 297.002C117.58 341.667 68.3588 390.826 68.3588 390.826L0.5 374.5Z" fill="#2A2769"/>
<path d="M450.952 84.7698C450.952 84.7698 442.808 104.915 441.205 108.673C439.601 112.431 443.672 114.217 446.078 112.985C448.546 111.753 449.101 108.673 452.494 108.426C455.887 108.18 455.948 110.891 458.108 111.876C460.267 112.862 465.202 111.507 463.228 107.687C461.192 103.806 450.952 84.7698 450.952 84.7698Z" fill="#334FA2"/>
<path d="M814.596 212.608L797.038 192.34L789.2 199.112L806.758 219.38L814.596 212.608Z" fill="#8FABD9"/>
<path d="M799.931 207.489C797.772 204.963 798.018 201.205 800.548 198.987L810.48 190.424C813.009 188.268 816.772 188.514 818.993 191.04C821.152 193.566 820.905 197.324 818.376 199.542L808.444 208.105C805.915 210.261 802.09 210.015 799.931 207.489Z" fill="#8FABD9"/>
<path d="M970.01 215.867L943.915 248.334V280.061L975.685 272.052L1003.75 234.103L970.01 215.867Z" fill="#9EB6DF"/>
<path d="M1014.8 155.309C1014.8 155.309 1103.26 30.8645 1111.9 18.5433C1120.53 6.22211 1132.44 8.93277 1138.61 13.738C1144.78 18.5433 1143.23 27.1681 1138.61 36.409C1133.98 45.6499 1038.98 175.639 1038.98 175.639L1014.8 155.309Z" fill="#9EB6DF"/>
<path d="M979.201 234.965C960.571 221.843 962.36 207.674 976.734 196.461C991.107 185.249 995.426 181.984 1000.98 169.663C1006.53 157.342 1020.1 138.059 1038.3 152.536C1056.5 167.014 1044.16 182.107 1035.83 187.96C1027.5 193.812 1019.18 212.91 1015.78 222.767C1012.39 232.624 1001.59 250.798 979.201 234.965Z" fill="#8FABD9"/>
<path d="M1177.72 52.4267L1210.91 72.0174L1218 60.4355L1214.3 47.9911L1200.73 51.5026L1201.78 42.2617H1185.62L1177.72 52.4267Z" fill="#8FABD9"/>
<path d="M1069.02 177.795C1069.02 177.795 1080.43 183.339 1088.64 199.234C1088.64 199.234 1057.79 231.885 1021.89 247.964C985.987 264.043 987.653 269.957 980.065 266.261C972.539 262.564 981.299 252.091 986.049 247.964C990.799 243.836 978.029 244.576 978.523 240.017C979.016 235.458 985 239.093 991.971 239.277C998.942 239.524 1016.09 233.979 1069.02 177.795Z" fill="white"/>
<path d="M246.512 163.317L258.541 162.208L284.821 119.208C284.821 119.208 283.155 109.351 289.263 103.067C295.37 96.7829 306.289 95.674 310.792 97.5222C315.296 99.3704 317.27 109.843 309.435 120.932C301.601 132.022 303.143 127.401 296.172 153.707C289.201 180.013 281.12 190.486 252.742 195.044C224.303 199.665 246.512 163.317 246.512 163.317Z" fill="white"/>
<path d="M176 140.092C176 140.092 178.283 159.991 195.309 158.574C212.397 157.157 211.348 140.092 211.348 140.092C211.348 140.092 224.303 142.741 229.238 164.303L250.213 163.071C250.213 163.071 258.048 167.814 257.616 180.32C257.184 192.826 253.729 194.921 253.729 194.921L227.388 199.049C227.388 199.049 215.667 239.093 190.374 265.583C190.374 265.583 155.828 281.293 135.778 260.039C115.729 238.784 124.983 226.463 124.983 226.463C124.983 226.463 145.34 215.374 152.743 191.964C160.146 168.554 160.084 141.57 176 140.092Z" fill="#BA5A8D"/>
<path d="M197.99 107.743C199.469 106.769 199.665 104.46 198.427 102.585C197.189 100.711 194.986 99.9808 193.507 100.955C192.029 101.929 191.833 104.238 193.071 106.113C194.309 107.987 196.511 108.717 197.99 107.743Z" fill="#2A2769"/>
<path d="M216.741 95.3783C218.22 94.4044 218.415 92.0951 217.177 90.2205C215.939 88.3459 213.737 87.6158 212.258 88.5897C210.779 89.5637 210.583 91.873 211.821 93.7476C213.059 95.6222 215.262 96.3523 216.741 95.3783Z" fill="#2A2769"/>
<path d="M210.361 122.596C212.335 123.705 214.68 123.582 216.839 122.904C218.689 122.35 220.849 121.549 221.836 119.701C222.576 118.407 220.54 117.236 219.862 118.53C219.183 119.762 217.517 120.255 216.222 120.625C214.68 121.117 213.014 121.364 211.533 120.563C210.176 119.885 209.004 121.857 210.361 122.596Z" fill="#2A2769"/>
<path d="M189.942 102.512C189.572 99.8018 194.199 97.7072 196.234 97.2143C197.9 96.7831 197.098 94.2573 195.432 94.6885C192.163 95.4894 186.672 98.6313 187.289 102.697C187.536 104.361 190.189 104.237 189.942 102.512Z" fill="#2A2769"/>
<path d="M208.202 89.8831C209.498 87.6037 211.533 85.3859 214.433 85.7555C216.16 85.9403 216.715 83.3529 214.988 83.1065C210.793 82.552 207.77 85.2627 205.858 88.651C204.933 90.1911 207.4 91.3616 208.202 89.8831Z" fill="#2A2769"/>
<path d="M210.608 100.11C213.754 101.958 216.654 104.114 219.245 106.702C219.306 106.147 219.306 105.654 219.368 105.1C218.319 106.702 218.011 107.441 217.086 108.858C216.407 109.967 217.949 110.952 218.628 109.843C219.615 108.303 219.738 108.365 220.417 106.763C220.725 106.147 221.034 105.654 220.54 105.161C217.826 102.512 214.803 100.233 211.472 98.3232C210.423 97.6455 209.498 99.4321 210.608 100.11Z" fill="#2A2769"/>
<path d="M904.187 252.215C896.475 249.75 891.047 243.282 887.345 236.382C883.212 228.743 880.991 220.241 879.696 211.74C877.043 194.12 878.339 176.07 874.699 158.574C872.972 150.38 870.196 142.248 865.445 135.287C861.189 129.064 855.637 123.581 848.974 119.947C842.558 116.497 835.032 114.772 827.815 116.066C820.967 117.298 813.873 122.041 813.749 129.619C813.564 137.566 820.535 143.727 827.938 145.02C835.773 146.437 844.039 144.096 851.01 140.523C863.965 133.808 873.897 121.056 876.55 106.701C879.326 91.7928 874.514 75.8369 864.212 64.7478C852.984 52.6114 836.328 48.299 820.412 47.0053C801.843 45.5267 783.09 48.299 764.644 44.9723C750.147 42.3848 735.218 35.0537 727.815 21.6852C726.15 18.6665 724.978 15.4014 724.361 12.0131C723.991 10.0417 721.03 10.9042 721.4 12.814C724.052 26.9217 735.527 37.518 748.235 43.1857C764.459 50.4552 782.719 49.8391 800.116 49.5927C816.217 49.4079 833.305 49.5311 848.172 56.739C855.02 60.0657 861.065 64.8094 865.445 71.0316C869.702 76.9458 872.478 83.784 873.65 90.9303C875.994 105.223 870.874 119.639 860.634 129.68C855.637 134.547 849.591 138.367 842.929 140.523C835.773 142.803 826.396 143.788 820.535 137.997C818.129 135.595 816.464 132.206 816.834 128.756C817.204 125.43 819.61 122.781 822.448 121.179C828.493 117.729 836.143 118.16 842.558 120.378C857.179 125.43 866.432 139.414 870.442 153.707C875.131 170.464 874.144 188.083 875.933 205.209C876.796 213.649 878.215 222.028 881.238 229.975C884.014 237.306 888.024 244.576 894.008 249.689C896.784 252.091 899.992 253.94 903.508 255.11C905.297 255.788 906.099 252.831 904.187 252.215Z" fill="#EA8461"/>
<path d="M329.978 216.298C334.975 222.829 342.624 226.279 350.521 227.819C359.342 229.544 368.596 229.421 377.417 227.942C386.486 226.402 395.184 223.198 403.142 218.639C411.1 214.019 418.318 208.228 425.844 202.93C433.308 197.693 441.266 192.95 450.15 190.67C458.169 188.637 466.806 188.822 474.147 192.827C480.378 196.215 485.436 201.821 488.151 208.413C490.865 214.882 491.544 222.952 487.966 229.297C486.115 232.562 483.277 234.78 479.576 235.458C475.566 236.197 471.124 235.273 467.299 233.979C461.069 231.823 454.16 227.264 452.556 220.488C452.185 218.948 452.185 217.346 452.494 215.806C452.679 215.005 452.247 214.142 451.445 213.896C450.705 213.711 449.718 214.142 449.533 214.943C447.929 222.89 453.234 229.605 459.65 233.61C463.043 235.704 466.806 237.183 470.692 238.045C475.257 238.969 480.131 239.216 484.388 237.06C491.482 233.487 494.011 224.615 493.456 217.223C492.901 209.46 489.323 202.068 483.956 196.461C478.28 190.609 470.754 186.974 462.673 186.358C453.358 185.68 444.104 188.761 435.899 193.073C427.448 197.509 419.983 203.546 412.272 209.029C404.623 214.512 396.603 219.317 387.658 222.274C378.713 225.231 369.213 226.463 359.836 225.909C351.816 225.416 343.179 223.753 336.702 218.763C335.222 217.592 333.864 216.298 332.754 214.82C332.26 214.142 331.397 213.834 330.656 214.265C329.854 214.573 329.423 215.621 329.978 216.298Z" fill="#BA5A8D"/>
<path d="M495.183 29.078C494.319 25.6897 496.602 22.3014 498.576 19.7756C500.612 17.1881 502.956 14.7855 505.609 12.7525C510.667 8.8713 516.96 6.22224 523.437 6.59188C529.112 6.89991 534.665 9.67218 538.304 14.0462C540.032 16.1408 541.327 18.8515 541.636 21.5621C541.944 23.9031 541.45 26.737 539.908 28.5236C539.106 29.5093 538.058 30.1253 536.762 30.2486C535.035 30.4334 533.431 29.6941 532.012 28.8316C530.531 27.9075 529.112 26.737 527.879 25.5049C526.892 24.4576 525.966 23.2255 526.09 21.7469C526.275 19.1595 529.359 17.3729 531.518 16.264C534.85 14.539 538.489 12.9989 542.191 12.3212C545.46 11.6436 548.853 11.9516 551.876 13.4917C554.59 14.9087 556.811 17.0649 558.97 19.2211C561.191 21.4389 563.289 23.7799 565.756 25.7513C568.039 27.5379 570.506 28.9548 573.282 29.9405C583.77 33.6985 596.725 30.7414 604.312 22.4862C605.238 21.4389 606.101 20.33 606.903 19.0979C608.014 17.4345 605.299 15.8944 604.251 17.5577C598.02 27.2299 584.695 30.803 574.146 26.9834C571.432 25.9978 568.902 24.396 566.743 22.4862C564.276 20.2684 562.055 17.7426 559.649 15.4631C557.243 13.1837 554.59 11.0891 551.383 9.9186C547.619 8.50166 543.425 8.74809 539.6 9.79539C537.502 10.3498 535.528 11.1507 533.492 12.0132C531.827 12.7525 530.1 13.4917 528.557 14.4774C525.843 16.1408 523.005 18.7899 523.19 22.2398C523.375 26.121 526.953 29.0164 529.976 31.0494C533.061 33.144 537.194 34.3146 540.587 32.1583C543.363 30.3718 544.658 27.1683 544.967 24.0264C545.275 20.8845 544.35 17.6193 542.808 14.8471C539.723 9.24093 533.863 5.35976 527.694 4.00443C520.476 2.46428 513.258 4.31246 507.213 7.8856C504.128 9.73378 501.352 12.0748 498.884 14.6623C496.293 17.3729 493.764 20.5148 492.53 24.088C491.852 25.9361 491.728 27.9691 492.222 29.9405C492.715 31.8503 495.677 31.0494 495.183 29.078Z" fill="#BA5A8D"/>
<path d="M404.191 94.0108C414.863 81.8744 425.535 69.738 436.208 57.6017C439.23 54.1517 442.253 50.7634 445.276 47.3135C446.263 46.2046 444.597 44.5412 443.61 45.6501C432.938 57.7865 422.266 69.9229 411.593 82.0592C408.571 85.5092 405.548 88.8975 402.525 92.3474C401.538 93.5179 403.204 95.1197 404.191 94.0108Z" fill="#2A2769"/>
<path d="M443.487 47.0669C455.64 58.772 468.101 70.2307 480.809 81.3814C484.387 84.5233 488.027 87.6652 491.667 90.7455C492.777 91.7312 494.443 90.0679 493.332 89.0822C480.501 78.1163 467.854 66.8424 455.516 55.2605C452.062 51.9954 448.546 48.7303 445.153 45.4035C444.042 44.4178 442.377 46.0196 443.487 47.0669Z" fill="#2A2769"/>
<path d="M451.568 137.012C462.488 125.368 473.16 113.478 483.524 101.342C486.485 97.8918 489.384 94.3802 492.284 90.8687C492.654 90.3758 492.777 89.6982 492.284 89.2053C491.852 88.7741 491.05 88.7125 490.618 89.2053C480.439 101.527 469.952 113.54 459.218 125.306C456.133 128.695 453.049 132.021 449.903 135.348C448.916 136.457 450.52 138.12 451.568 137.012Z" fill="#2A2769"/>
<path d="M402.217 93.5795C415.665 103.868 428.62 114.834 440.958 126.416C444.412 129.681 447.867 133.007 451.26 136.396C452.309 137.443 453.974 135.841 452.926 134.732C440.834 122.719 428.126 111.26 414.863 100.541C411.1 97.5223 407.337 94.5036 403.45 91.6082C402.957 91.2385 402.155 91.5465 401.846 92.0394C401.415 92.5938 401.723 93.2099 402.217 93.5795Z" fill="#2A2769"/>
<path d="M216.962 86.618C220.108 90.5607 222.391 95.1812 224.488 99.6784C226.647 104.237 228.56 109.104 229.115 114.156C229.609 118.407 229.053 122.965 227.018 126.785C225.044 130.543 221.712 133.192 217.702 134.486C213.137 136.026 208.141 136.026 203.39 135.471C202.773 135.41 202.218 136.026 202.218 136.642C202.218 137.32 202.773 137.751 203.39 137.812C212.274 138.798 222.638 137.566 228.066 129.557C230.719 125.676 231.768 120.809 231.583 116.189C231.398 110.829 229.67 105.654 227.573 100.787C225.167 95.2428 222.453 89.6366 218.628 84.9546C218.258 84.4617 217.394 84.5233 216.962 84.9546C216.469 85.4474 216.592 86.1251 216.962 86.618Z" fill="#2A2769"/>
<path d="M161.009 121.056C161.009 120.871 160.948 120.871 160.948 121.179L160.886 121.241C160.763 121.241 160.824 121.241 160.948 121.241C161.256 121.241 161.626 121.425 161.935 121.549C162.613 121.795 163.292 122.103 163.909 122.473C165.204 123.15 166.5 123.951 167.61 124.875C168.104 125.245 168.782 125.368 169.276 124.875C169.708 124.444 169.769 123.643 169.276 123.212C167.672 121.98 166.006 120.871 164.156 120.008C163.23 119.577 162.182 119.023 161.133 118.961C159.961 118.9 158.665 119.824 158.789 121.056C158.85 121.672 159.282 122.226 159.961 122.226C160.454 122.226 161.133 121.733 161.009 121.056Z" fill="#2A2769"/>
<path d="M209.374 138.059C209.868 139.106 210.423 140.092 210.917 141.139C211.04 141.386 211.348 141.57 211.595 141.694C211.842 141.755 212.212 141.755 212.459 141.57C213.014 141.201 213.137 140.585 212.891 139.969C212.397 138.921 211.842 137.936 211.348 136.888C211.225 136.642 210.917 136.457 210.67 136.334C210.423 136.272 210.053 136.272 209.806 136.457C209.251 136.827 209.128 137.504 209.374 138.059Z" fill="#2A2769"/>
<path d="M162.798 136.704C166.006 138.675 169.584 140.03 173.347 140.585C174.088 140.708 174.951 140.708 175.63 141.078C176.37 141.386 176.617 142.125 176.802 142.864C177.296 144.836 177.604 146.869 177.974 148.84C178.283 150.318 180.503 149.702 180.195 148.224C179.825 146.191 179.578 144.035 178.961 142.002C178.406 140.092 177.111 138.921 175.136 138.552C173.224 138.182 171.312 137.936 169.461 137.32C167.549 136.704 165.698 135.779 163.971 134.732C162.675 133.931 161.565 135.903 162.798 136.704Z" fill="#2A2769"/>
<path d="M211.904 136.642C208.819 135.841 205.673 135.41 202.465 135.41C200.244 135.41 197.9 135.718 196.173 137.135C195.556 137.689 195.001 138.367 194.877 139.168C194.754 140.215 195.432 141.201 196.358 141.755C197.221 142.31 198.332 142.494 199.381 142.556C203.452 142.864 207.585 142.002 211.225 140.092C211.348 140.03 211.04 139.969 211.102 140.03" fill="#2A2769"/>
<path d="M566.99 145.945C571.37 146.129 575.812 145.637 580.068 144.404C581.981 143.85 581.179 140.893 579.266 141.447C575.256 142.556 571.185 143.049 567.052 142.864C566.188 142.803 565.509 143.604 565.509 144.404C565.448 145.267 566.188 145.945 566.99 145.945Z" fill="#EA8461"/>
<path d="M569.026 96.3517C571.679 97.8302 574.393 99.2472 577.046 100.726C577.724 101.095 578.773 100.911 579.143 100.171C579.513 99.432 579.328 98.4463 578.588 98.0767C575.935 96.5981 573.221 95.1812 570.568 93.7026C569.89 93.333 568.841 93.5178 568.471 94.2571C568.101 94.9348 568.286 95.9204 569.026 96.3517Z" fill="#EA8461"/>
<path d="M618.933 61.1747C620.167 64.0086 621.277 67.2737 622.079 70.4156C622.264 71.2165 623.19 71.771 623.992 71.4629C624.794 71.2165 625.287 70.4156 625.04 69.5531C624.177 66.1648 623.004 62.8381 621.586 59.6346C621.277 58.8953 620.105 58.6489 619.488 59.0801C618.686 59.573 618.563 60.4355 618.933 61.1747Z" fill="#EA8461"/>
<path d="M681.795 63.5156C680.808 67.3352 679.451 71.0932 677.723 74.6663C677.353 75.4056 677.538 76.3297 678.279 76.7609C678.957 77.1305 680.006 76.9457 680.376 76.2065C682.227 72.3869 683.707 68.4441 684.756 64.3165C684.941 63.5156 684.509 62.6532 683.707 62.4067C682.905 62.2219 682.042 62.6532 681.795 63.5156Z" fill="#EA8461"/>
<path d="M722.017 105.839C718.994 107.934 715.848 109.535 712.393 110.644C711.653 110.891 711.036 111.753 711.344 112.554C711.591 113.293 712.393 113.909 713.257 113.601C716.958 112.431 720.413 110.706 723.62 108.488C724.299 107.995 724.608 107.133 724.176 106.393C723.744 105.716 722.695 105.346 722.017 105.839Z" fill="#EA8461"/>
<path d="M716.588 156.541C714.182 156.233 711.776 155.986 709.432 155.678C708.63 155.555 707.828 156.479 707.89 157.218C707.951 158.142 708.568 158.635 709.432 158.758C711.838 159.066 714.244 159.313 716.588 159.621C717.39 159.744 718.192 158.82 718.13 158.081C718.068 157.157 717.452 156.664 716.588 156.541Z" fill="#EA8461"/>
<path d="M645.83 210.631C647.804 195.845 647.68 180.998 645.274 166.274C644.472 161.346 643.424 156.541 642.437 151.612C641.758 148.162 640.956 144.528 641.635 141.016C642.19 138.059 644.226 134.301 647.804 134.732C649.531 134.917 651.073 136.088 651.999 137.566C653.047 139.291 653.232 141.447 652.862 143.357C651.937 147.977 648.421 151.366 645.213 154.569C644.657 155.124 644.596 155.986 645.089 156.602C645.583 157.28 646.323 157.342 647.063 156.972C648.914 156.171 651.135 156.787 652.677 157.896C654.466 159.19 655.268 161.346 655.268 163.502C655.268 168.492 651.135 172.127 646.632 173.482C644.719 174.098 645.521 177.055 647.434 176.439C652.06 175.022 656.317 171.757 657.797 166.952C659.278 162.27 657.612 156.726 653.047 154.508C650.641 153.337 647.989 153.214 645.459 154.261C646.076 155.062 646.693 155.863 647.31 156.664C650.518 153.522 653.788 150.195 655.268 145.883C656.687 141.817 656.255 136.95 652.924 133.931C651.443 132.576 649.531 131.713 647.557 131.59C645.521 131.467 643.609 132.33 642.067 133.685C638.735 136.642 637.995 141.509 638.365 145.76C638.859 151.427 640.401 157.034 641.45 162.64C642.622 168.923 643.485 175.146 643.917 181.553C644.534 191.286 644.041 201.02 642.745 210.631C642.622 211.432 643.547 212.171 644.287 212.171C645.213 212.171 645.706 211.432 645.83 210.631Z" fill="white"/>
<path d="M665.755 222.336H625.349C621.709 222.336 618.686 219.317 618.686 215.683C618.686 212.048 621.709 209.029 625.349 209.029H665.755C669.395 209.029 672.418 212.048 672.418 215.683C672.48 219.317 669.457 222.336 665.755 222.336Z" fill="#334FA2"/>
<path d="M665.447 234.103H625.719C622.079 234.103 619.056 231.084 619.056 227.449C619.056 223.814 622.079 220.796 625.719 220.796H665.447C669.087 220.796 672.109 223.814 672.109 227.449C672.109 231.084 669.148 234.103 665.447 234.103Z" fill="#334FA2"/>
<path d="M664.46 245.869H626.706C623.066 245.869 620.043 242.851 620.043 239.216C620.043 235.581 623.066 232.562 626.706 232.562H664.46C668.1 232.562 671.122 235.581 671.122 239.216C671.122 242.851 668.161 245.869 664.46 245.869Z" fill="#334FA2"/>
<path d="M443.283 39.8159L436.043 48.0601L444.298 55.2909L451.539 47.0468L443.283 39.8159Z" fill="#8FABD9"/>
<path d="M467.443 61.0271L460.203 69.2712L468.458 76.5021L475.699 68.258L467.443 61.0271Z" fill="#8FABD9"/>
<path d="M491.597 82.1514L484.357 90.3955L492.612 97.6264L499.853 89.3823L491.597 82.1514Z" fill="#8FABD9"/>
<path d="M423.33 62.5752L416.089 70.8193L424.344 78.0502L431.585 69.8061L423.33 62.5752Z" fill="#8FABD9"/>
<path d="M471.684 104.865L464.444 113.109L472.699 120.34L479.94 112.095L471.684 104.865Z" fill="#8FABD9"/>
<path d="M403.416 85.2883L396.176 93.5325L404.431 100.763L411.672 92.5192L403.416 85.2883Z" fill="#8FABD9"/>
<path d="M427.57 106.413L420.33 114.657L428.585 121.888L435.826 113.644L427.57 106.413Z" fill="#8FABD9"/>
<path d="M451.684 127.583L444.443 135.827L452.699 143.058L459.939 134.814L451.684 127.583Z" fill="#8FABD9"/>
<path d="M249.596 163.933C251.632 163.749 253.729 163.564 255.765 163.379C256.629 163.317 257.492 163.256 258.356 162.886C259.096 162.516 259.59 161.962 260.083 161.284C262.427 158.019 264.648 154.569 266.869 151.243C271.249 144.651 275.506 137.997 279.639 131.282C281.983 127.401 284.327 123.52 286.548 119.515C287.288 118.222 285.314 117.051 284.574 118.345C276.986 131.652 268.658 144.527 260.083 157.218C259.466 158.142 258.849 159.005 258.233 159.929C257.739 160.668 257.307 160.853 256.382 160.976C254.099 161.223 251.879 161.408 249.596 161.592C248.177 161.777 248.115 164.057 249.596 163.933Z" fill="#2A2769"/>
<path d="M286.672 118.653C285.376 113.971 286.795 108.858 289.879 105.161C292.964 101.527 297.406 99.0623 302.032 98.0766C304.747 97.5222 307.708 97.5222 310.175 98.8775C311.471 99.5552 312.643 97.5838 311.348 96.9061C306.227 94.2571 300.058 95.674 295.185 98.1382C290.311 100.602 286.24 104.792 284.636 110.151C283.71 113.109 283.649 116.312 284.451 119.331C284.883 120.686 287.103 120.07 286.672 118.653Z" fill="#2A2769"/>
<path d="M309.805 98.6928C313.198 100.479 314.494 104.484 314.247 108.119C313.938 112.801 310.916 116.99 308.078 120.501C306.166 122.966 304.191 125.368 302.279 127.771C301.909 128.264 301.786 128.941 302.279 129.434C302.649 129.865 303.513 129.927 303.945 129.434C305.857 127.093 307.708 124.752 309.62 122.35C311.286 120.255 312.951 118.099 314.247 115.696C316.468 111.568 317.517 106.64 315.728 102.143C314.802 99.8633 313.26 97.8303 311.039 96.6598C309.62 95.9822 308.51 98.0152 309.805 98.6928Z" fill="#2A2769"/>
<path d="M254.038 196.338C257.184 196.831 260.083 195.352 262.921 194.243C265.759 193.135 268.658 191.902 271.434 190.609C276.554 188.144 281.428 184.941 285.253 180.752C287.289 178.472 289.016 175.946 290.25 173.174C290.496 172.62 290.435 171.942 289.818 171.572C289.324 171.264 288.461 171.388 288.214 172.004C283.834 182.107 273.593 187.528 263.846 191.471C262.366 192.087 260.885 192.642 259.343 193.258C257.862 193.812 256.197 194.49 254.593 194.243C253.976 194.12 253.359 194.428 253.174 195.044C253.051 195.476 253.421 196.276 254.038 196.338Z" fill="#2A2769"/>
<path d="M290.065 173.914C294.815 162.578 298.146 150.688 301.477 138.86C302.464 135.348 303.451 131.837 304.438 128.387C304.87 126.97 302.588 126.354 302.217 127.771C298.886 139.722 295.74 151.735 291.607 163.502C290.435 166.829 289.201 170.094 287.844 173.297C287.597 173.852 288.09 174.591 288.646 174.714C289.263 174.899 289.818 174.468 290.065 173.914Z" fill="#2A2769"/>
<path d="M230.534 106.948C235.963 94.5651 246.388 85.0778 258.294 78.9788C261.07 77.5619 265.142 75.7137 264.772 72.0174C264.648 70.5388 262.304 70.5388 262.427 72.0174C262.674 74.8512 258.664 76.2066 256.629 77.1923C253.668 78.7324 250.83 80.4574 248.115 82.4288C242.748 86.2483 237.937 90.8688 233.989 96.2285C231.768 99.2472 229.917 102.451 228.436 105.839C228.19 106.393 228.251 107.071 228.868 107.441C229.423 107.687 230.287 107.502 230.534 106.948Z" fill="#2A2769"/>
<path d="M224.673 73.4343C234.42 65.1175 246.203 57.6632 259.405 56.8623C262.489 56.6775 266.376 56.5543 268.658 58.9569C269.707 60.0659 271.311 58.4025 270.324 57.2936C268.103 54.9526 264.71 54.4597 261.626 54.4597C258.171 54.4597 254.716 54.9526 251.323 55.815C244.661 57.54 238.368 60.6819 232.631 64.5015C229.3 66.7193 226.154 69.1835 223.069 71.771C221.897 72.7567 223.563 74.42 224.673 73.4343Z" fill="#2A2769"/>
<path d="M268.411 58.8336C270.324 60.3737 269.769 63.2692 268.843 65.179C267.856 67.1504 266.252 69.4298 263.97 69.9226C262.489 70.2307 263.106 72.4485 264.587 72.1405C267.609 71.5244 269.83 68.6289 271.064 65.9799C272.298 63.2692 272.73 59.3264 270.077 57.2318C269.584 56.8622 268.905 56.739 268.411 57.2318C267.98 57.6014 267.918 58.4639 268.411 58.8336Z" fill="#2A2769"/>
<path d="M264.525 71.3396C264.34 70.3539 263.476 69.553 262.489 69.3682C261.379 69.1218 260.268 69.3682 259.158 69.6146C257.122 70.0458 255.21 70.8467 253.421 71.894C252.125 72.6333 253.297 74.6047 254.593 73.8654C255.95 73.0645 257.431 72.4485 258.973 72.0172C259.713 71.8324 260.453 71.6476 261.194 71.586C261.44 71.586 261.626 71.586 261.872 71.586C261.934 71.586 262.119 71.6476 261.996 71.586C262.181 71.6476 262.181 71.7092 262.242 71.7708C262.119 71.586 262.242 71.8324 262.242 71.9556C262.366 72.5717 263.106 72.9413 263.661 72.7565C264.34 72.5717 264.587 71.9556 264.525 71.3396Z" fill="#2A2769"/>
<path d="M192.718 174.283C203.514 164.118 219.985 164.057 233.927 163.995C239.047 163.995 244.167 164.057 249.288 164.18C250.768 164.241 250.768 161.9 249.288 161.839C240.466 161.531 231.521 161.408 222.699 161.9C215.42 162.27 208.017 163.256 201.293 166.09C197.53 167.691 194.075 169.786 191.052 172.62C190.004 173.667 191.669 175.269 192.718 174.283Z" fill="#2A2769"/>
<path d="M980.373 266.877C977.227 261.948 980.312 256.157 984.137 252.769C985.124 251.845 986.296 251.167 987.344 250.305C988.393 249.504 989.01 248.272 988.702 246.978C988.393 245.808 987.468 244.945 986.419 244.391C985.309 243.775 984.198 243.651 982.964 243.528C981.977 243.405 980.62 243.282 980.065 242.358C979.571 241.557 980.003 240.571 980.559 239.955C982.471 237.861 986.049 238.969 988.517 239.216C994.315 239.709 1000.05 238.23 1005.36 235.889C1011.47 233.178 1017.02 229.359 1022.51 225.478C1023.68 224.615 1022.57 222.644 1021.34 223.506C1011.77 230.345 1000.79 237.984 988.455 236.936C985.617 236.69 982.286 235.828 979.757 237.737C977.721 239.216 976.672 242.235 978.584 244.268C979.448 245.192 980.744 245.561 981.977 245.808C983.149 245.992 984.383 245.992 985.432 246.609C986.234 247.04 986.974 247.779 986.111 248.58C985.062 249.504 983.828 250.243 982.779 251.167C980.373 253.262 978.338 255.911 977.412 258.991C976.487 262.072 976.734 265.522 978.461 268.294C979.201 269.28 981.175 268.109 980.373 266.877Z" fill="#2A2769"/>
<path d="M1022.51 225.416C1033.24 216.175 1043.24 206.134 1053.04 196.03C1057.86 191.102 1062.91 186.296 1067.05 180.752C1071.18 175.331 1073.77 169.047 1076.12 162.701C1078.89 155.247 1081.24 147.608 1083.15 139.846C1083.52 138.429 1081.3 137.813 1080.93 139.229C1079.26 146.068 1077.23 152.783 1074.88 159.436C1072.66 165.72 1070.26 172.065 1066.49 177.61C1062.67 183.278 1057.61 188.021 1052.86 192.888C1047.99 197.878 1043.11 202.868 1038.18 207.797C1032.56 213.28 1026.83 218.701 1020.9 223.814C1019.73 224.738 1021.4 226.402 1022.51 225.416Z" fill="#2A2769"/>
<path d="M978.4 267.739C979.201 269.957 981.175 271.436 983.458 271.867C986.234 272.421 988.948 271.436 991.416 270.265C996.104 268.109 1000.42 265.152 1004.19 261.702C1006.34 259.731 1008.32 257.574 1010.11 255.295C1010.48 254.802 1010.6 254.124 1010.11 253.632C1009.74 253.2 1008.87 253.139 1008.44 253.632C1005.6 257.266 1002.33 260.531 998.572 263.242C996.721 264.597 994.747 265.891 992.65 267C990.614 268.109 988.331 269.341 985.987 269.649C983.951 269.896 981.299 269.218 980.559 267.123C980.127 265.706 977.906 266.322 978.4 267.739Z" fill="#2A2769"/>
<path d="M1009 256.404C1022.51 250.243 1035.46 242.912 1047.74 234.595C1053.85 230.468 1059.77 226.032 1065.51 221.412C1071.18 216.791 1076.8 211.986 1081.98 206.811C1087.71 201.082 1092.96 194.798 1096.72 187.652C1097.4 186.358 1095.43 185.187 1094.75 186.481C1091.42 192.827 1086.91 198.433 1081.92 203.608C1076.92 208.783 1071.49 213.526 1065.94 218.085C1054.65 227.388 1042.56 235.766 1029.85 243.097C1022.69 247.225 1015.29 251.044 1007.76 254.494C1007.21 254.741 1007.09 255.541 1007.33 256.096C1007.76 256.589 1008.44 256.712 1009 256.404Z" fill="#2A2769"/>
<path d="M77.4138 15.0319L50.0852 29.0165C50.0852 29.0165 55.4522 51.8106 52.7379 57.54C50.0235 63.2694 40.2149 63.0845 38.3642 53.8436C36.5135 44.6028 42.6824 44.7876 41.0168 38.1957C39.3512 31.6039 40.2765 19.714 49.1599 19.3443C58.0432 18.9747 60.2024 16.0176 61.8063 14.7239C63.4102 13.4301 71.615 11.3355 77.4138 15.0319Z" fill="#334FA2"/>
<path d="M109.739 60.9284C103.138 48.2375 96.5994 35.4235 90.1836 22.6095C88.3329 18.9747 86.5439 15.34 84.7549 11.7052C84.0763 10.3499 86.1121 9.17937 86.729 10.5347C93.083 23.4103 99.5605 36.1628 106.1 48.9152C107.95 52.55 109.863 56.1231 111.713 59.7579C112.392 61.0516 110.418 62.2221 109.739 60.9284Z" fill="#2A2769"/>
<path d="M86.1121 11.7052C77.1671 15.7712 68.4688 20.2069 59.9556 25.0121C57.5497 26.3675 55.1438 27.7844 52.7379 29.2013C51.4424 29.9406 50.2703 27.9692 51.5658 27.2299C59.9556 22.1783 68.5922 17.5578 77.4138 13.2454C79.9431 12.0133 82.4107 10.8428 84.94 9.73386C85.4952 9.48743 86.1738 9.54904 86.5439 10.1651C86.8524 10.6579 86.6673 11.4588 86.1121 11.7052Z" fill="#2A2769"/>
<path d="M111.59 61.3597C100.671 66.5962 89.6901 71.7711 78.771 77.0076C75.6865 78.4861 72.602 79.9647 69.5175 81.4432C68.1604 82.0593 66.9882 80.0879 68.3454 79.4718C79.2645 74.2353 90.2453 69.0604 101.164 63.8239C104.249 62.3454 107.333 60.8668 110.418 59.3883C111.775 58.7722 112.947 60.7436 111.59 61.3597Z" fill="#2A2769"/>
<path d="M68.1603 81.5662C63.2252 72.1405 58.29 62.7764 53.2931 53.3507C52.6145 52.057 54.5886 50.8865 55.2672 52.1802C60.2024 61.6059 65.1375 70.97 70.1344 80.3957C70.813 81.751 68.8389 82.9215 68.1603 81.5662Z" fill="#2A2769"/>
<path d="M98.0182 36.2244C99.1903 31.296 100.301 26.2443 100.733 21.1926C101.103 16.3873 101.041 11.274 99.4371 6.65358C99.0052 5.35986 98.0799 3.51168 96.661 3.26525C94.872 2.95722 93.4532 5.11343 92.6512 6.40716C90.1219 10.3499 88.2712 14.6624 86.8524 19.098C85.2484 24.2113 84.0763 29.3862 82.9659 34.6227C82.5341 36.5325 79.573 35.7316 80.0048 33.8218C82.1639 23.78 84.4465 13.4918 90.0602 4.7438C91.294 2.83401 93.0213 0.677802 95.4272 0.308167C97.8331 -0.123075 99.8689 1.23226 101.164 3.14204C102.522 5.17504 103.077 7.70088 103.447 10.0419C103.879 12.7526 104.064 15.5248 104.002 18.2971C103.817 24.6425 102.522 30.8647 101.041 37.0253C100.547 38.9351 97.5247 38.1342 98.0182 36.2244Z" fill="#2A2769"/>
<path d="M78.4626 31.4192C79.8197 30.1871 81.8555 30.0022 83.3977 30.9263C84.94 31.8504 85.6186 33.8218 85.1251 35.4852C84.8166 36.4093 84.3231 37.1485 83.5211 37.703C82.9042 38.1342 81.9789 38.3806 81.1769 38.319C80.1899 38.2574 79.3262 37.8878 78.5859 37.2717C77.969 36.7789 77.4755 35.978 77.3521 35.2387C77.1671 34.2531 77.3521 33.2058 77.9074 32.2817C78.4626 31.4192 79.2645 30.7415 80.2516 30.4951C81.0535 30.3103 81.9789 30.7415 82.1639 31.5424C82.349 32.3433 81.9172 33.2057 81.1152 33.4522C80.9918 33.4522 80.8685 33.5138 80.8068 33.5754C80.9301 33.5138 81.0535 33.4522 81.1769 33.3906C80.9918 33.4522 80.8685 33.5754 80.6834 33.6986C80.8068 33.637 80.8685 33.5138 80.9918 33.4522C80.8068 33.5754 80.6834 33.6986 80.56 33.8834C80.6217 33.7602 80.7451 33.6986 80.8068 33.5754C80.6834 33.7602 80.4983 34.0066 80.4366 34.1914C80.4983 34.0682 80.56 33.945 80.6217 33.8218C80.56 34.0066 80.4983 34.2531 80.4366 34.4995C80.4366 34.3763 80.4983 34.253 80.4983 34.0682C80.4983 34.253 80.4983 34.4995 80.4983 34.6843C80.4983 34.5611 80.4366 34.4379 80.4366 34.253C80.4366 34.4379 80.4983 34.6227 80.56 34.8075C80.4983 34.6843 80.4366 34.5611 80.3749 34.4379C80.4366 34.6227 80.56 34.7459 80.6834 34.9307C80.6217 34.8075 80.4983 34.7459 80.4366 34.6227C80.56 34.8075 80.6834 34.9307 80.8685 35.0539C80.7451 34.9923 80.6834 34.8691 80.56 34.8075C80.7451 34.9307 80.9301 35.0539 81.1152 35.1771C80.9918 35.1155 80.8685 35.0539 80.7451 34.9923C80.9918 35.1155 81.2386 35.1771 81.4854 35.1771C81.362 35.1771 81.2386 35.1155 81.0535 35.1155C81.3003 35.1155 81.4854 35.1771 81.7321 35.1155C81.6087 35.1155 81.4854 35.1771 81.3003 35.1771C81.4854 35.1771 81.7321 35.1155 81.9172 34.9923C81.7938 35.0539 81.6704 35.1155 81.547 35.1771C81.7321 35.1155 81.8555 34.9923 82.0406 34.8691C81.9172 34.9307 81.8555 35.0539 81.7321 35.1155C81.8555 34.9923 82.0406 34.8691 82.1023 34.7459C82.0406 34.8691 81.9172 34.9307 81.8555 35.0539C81.9789 34.8691 82.1023 34.6843 82.2256 34.4995C82.1639 34.6227 82.1023 34.7459 82.0406 34.8691C82.1639 34.6227 82.2256 34.3763 82.2256 34.1298C82.2256 34.2531 82.1639 34.3763 82.1639 34.5611C82.2256 34.3147 82.2256 34.0682 82.1639 33.8218C82.1639 33.945 82.2256 34.0682 82.2256 34.253C82.2256 34.0682 82.1639 33.8218 82.0406 33.637C82.1023 33.7602 82.1639 33.8834 82.2256 34.0066C82.1639 33.8218 82.0406 33.6986 81.9172 33.5138C81.9789 33.637 82.1023 33.6986 82.1639 33.8218C82.0406 33.6986 81.9172 33.5138 81.7938 33.3906C81.9172 33.4522 81.9789 33.5754 82.1023 33.637C81.9172 33.5138 81.7321 33.3906 81.547 33.329C81.6704 33.3906 81.7938 33.4522 81.9172 33.5138C81.6704 33.3906 81.4237 33.329 81.1769 33.329C81.3003 33.329 81.4237 33.3906 81.6087 33.3906C81.362 33.329 81.1152 33.329 80.8685 33.3906C80.9918 33.3906 81.1152 33.329 81.3003 33.329C81.0535 33.3906 80.8685 33.3906 80.6217 33.5138C80.7451 33.4522 80.8685 33.3906 80.9918 33.329C80.8068 33.3906 80.6217 33.5138 80.4983 33.637C80.6217 33.5754 80.6834 33.4522 80.8068 33.3906C80.7451 33.4522 80.6834 33.5138 80.6217 33.5138C80.0048 34.0682 79.0178 34.1298 78.4626 33.5138C77.9073 33.0209 77.8457 32.0352 78.4626 31.4192Z" fill="#2A2769"/>
<path d="M792.713 203.977C787.901 208.166 783.028 212.356 778.216 216.607C775.872 218.639 773.528 220.611 771.245 222.644C769.271 224.369 767.42 226.279 766.433 228.743C764.768 232.994 767.359 238.846 772.541 238.045C775.378 237.614 777.846 235.52 780.128 233.918C782.596 232.193 785.002 230.468 787.346 228.681C792.775 224.554 798.018 220.241 803.077 215.621C804.187 214.635 802.522 212.972 801.411 213.957C797.278 217.715 793.022 221.289 788.642 224.677C784.323 228.065 779.882 231.515 775.193 234.411C773.404 235.52 770.937 236.628 769.271 234.719C768.161 233.425 767.975 231.392 768.469 229.79C769.209 227.572 771.06 225.847 772.726 224.307C774.885 222.397 777.044 220.549 779.203 218.639C784.262 214.265 789.258 209.891 794.317 205.517C795.489 204.655 793.824 202.992 792.713 203.977Z" fill="#C7508E"/>
<path d="M766.125 232.439C764.768 233.671 763.472 234.965 762.115 236.197C761.436 236.813 760.819 237.491 760.141 238.107C759.524 238.662 758.907 239.278 758.537 240.017C758.167 240.818 758.167 241.742 758.599 242.481C759.092 243.344 760.079 243.713 761.066 243.467C761.868 243.282 762.608 242.728 763.349 242.296C764.027 241.865 764.706 241.372 765.384 240.879C766.927 239.709 768.346 238.477 769.703 237.06C770.751 236.012 769.086 234.349 768.037 235.396C766.125 237.368 763.966 239.093 761.621 240.571C761.375 240.756 761.066 240.941 760.758 241.064C760.634 241.126 760.511 241.126 760.449 241.187C760.264 241.311 760.388 241.126 760.449 241.187L760.573 241.249C760.696 241.311 760.449 241.311 760.573 241.249C760.573 241.249 760.573 241.126 760.573 241.249C760.573 241.187 760.573 241.126 760.573 241.064C760.573 240.941 760.573 241.064 760.573 241.064L760.634 240.941C760.696 240.818 760.758 240.695 760.881 240.571C761.251 240.078 761.806 239.647 762.3 239.216C762.855 238.662 763.41 238.169 763.966 237.614C765.261 236.382 766.557 235.15 767.852 233.979C768.901 233.055 767.235 231.454 766.125 232.439Z" fill="#C7508E"/>
<path d="M1165.63 55.5071C1178.34 62.9614 1190.98 70.4157 1203.69 77.9316C1207.27 80.0262 1210.85 82.1208 1214.42 84.277C1216.15 85.2627 1217.69 82.6137 1215.97 81.628C1203.26 74.1737 1190.61 66.7193 1177.9 59.2034C1174.33 57.1088 1170.75 55.0142 1167.17 52.858C1165.44 51.8723 1163.9 54.5214 1165.63 55.5071Z" fill="#2A2769"/>
<path d="M1216.21 83.9074C1223.12 73.5576 1229.79 63.023 1236.08 52.3035C1237.87 49.2232 1239.66 46.1429 1241.38 43.0626C1242.37 41.3377 1239.72 39.7975 1238.73 41.5225C1232.62 52.3651 1226.21 63.023 1219.42 73.496C1217.51 76.453 1215.53 79.4717 1213.56 82.4288C1212.45 84.0306 1215.16 85.5707 1216.21 83.9074Z" fill="#2A2769"/>
<path d="M1167.42 54.5212C1174.76 43.9866 1181.98 33.3288 1188.95 22.5477C1190.92 19.5291 1192.83 16.4488 1194.81 13.4301C1195.86 11.7667 1193.2 10.2266 1192.15 11.8899C1185.25 22.7326 1178.21 33.452 1170.93 44.0482C1168.9 47.0053 1166.8 50.024 1164.76 52.9811C1164.27 53.6588 1164.64 54.7061 1165.32 55.0757C1166.06 55.5685 1166.92 55.2605 1167.42 54.5212Z" fill="#2A2769"/>
<path d="M1193.33 12.814C1205.36 20.5764 1217.45 28.3387 1229.48 36.0395C1232.87 38.2573 1236.32 40.4135 1239.72 42.6313C1241.38 43.6786 1242.93 41.0296 1241.26 39.9823C1229.23 32.2199 1217.14 24.4576 1205.11 16.7568C1201.72 14.539 1198.26 12.3828 1194.87 10.165C1193.2 9.05608 1191.66 11.7051 1193.33 12.814Z" fill="#2A2769"/>
<path d="M337.072 35.177C337.072 51.5642 337.072 67.9514 337.072 84.4002C337.072 89.0206 337.072 93.6411 337.072 98.2615C337.072 99.7401 339.416 99.7401 339.416 98.2615C339.416 81.8743 339.416 65.4872 339.416 49.0384C339.416 44.4179 339.416 39.7975 339.416 35.177C339.416 33.6985 337.072 33.6985 337.072 35.177Z" fill="#2A2769"/>
<path d="M307.523 147.669C313.507 138.86 319.491 129.988 325.474 121.179C327.14 118.715 328.867 116.189 330.533 113.724C331.397 112.492 329.361 111.322 328.559 112.554C322.575 121.364 316.529 130.173 310.545 138.983C308.88 141.447 307.153 143.973 305.487 146.437C304.685 147.793 306.659 148.901 307.523 147.669Z" fill="#2A2769"/>
<path d="M994.192 213.834C992.156 212.294 991.725 209.399 993.205 207.366L1014.49 178.657C1016.03 176.624 1018.93 176.193 1020.97 177.671C1023 179.212 1023.43 182.107 1021.95 184.14L1000.67 212.848C999.127 214.881 996.228 215.313 994.192 213.834Z" fill="#2A2769"/>
<path d="M999.127 77.3772C999.127 77.3772 1008.07 113.109 1016.4 124.814C1024.73 136.519 1044.47 131.282 1044.47 131.282L1060.51 150.688C1060.51 150.688 1073.46 146.622 1077.47 134.486C1081.48 122.35 1078.71 120.994 1078.71 120.994C1078.71 120.994 1075.31 118.592 1074.64 110.152C1073.96 101.712 1083.83 95.1197 1083.83 95.1197L1086.6 73.0648L1065.51 65.1792C1065.51 65.1792 1053.78 65.1792 1053.29 65.1792C1052.8 65.1792 1016.77 66.1033 1016.77 66.1033L999.127 77.3772Z" fill="white"/>
<path d="M1035.22 97.2915C1036.95 96.9083 1037.96 94.8204 1037.47 92.628C1036.99 90.4357 1035.19 88.969 1033.46 89.3523C1031.73 89.7355 1030.72 91.8234 1031.21 94.0158C1031.7 96.2081 1033.49 97.6747 1035.22 97.2915Z" fill="#2A2769"/>
<path d="M1013.26 102.157C1014.99 101.774 1016 99.6861 1015.51 97.4937C1015.02 95.3014 1013.23 93.8348 1011.5 94.218C1009.77 94.6012 1008.76 96.6891 1009.25 98.8815C1009.73 101.074 1011.53 102.54 1013.26 102.157Z" fill="#2A2769"/>
<path d="M1035.03 115.819C1034.66 117.174 1033.55 118.222 1032.25 119.023C1031.58 119.454 1030.84 119.823 1030.03 120.07C1029.29 120.378 1028.55 120.563 1027.75 120.378C1027.13 120.193 1026.52 120.563 1026.33 121.179C1026.15 121.795 1026.52 122.411 1027.13 122.596C1028.24 122.904 1029.35 122.719 1030.4 122.349C1031.45 121.98 1032.44 121.487 1033.36 120.994C1035.09 119.947 1036.63 118.406 1037.19 116.435C1037.37 115.819 1037 115.203 1036.39 115.018C1035.83 114.895 1035.22 115.265 1035.03 115.819Z" fill="#2A2769"/>
<path d="M1037 87.8499C1035.34 85.6937 1030.59 87.5419 1028.8 88.7124C1027.32 89.6365 1026.09 87.2339 1027.57 86.3714C1030.4 84.5848 1036.51 82.8599 1038.98 86.0634C1040.03 87.3571 1038.12 89.2053 1037 87.8499Z" fill="#2A2769"/>
<path d="M1015.23 92.1623C1012.7 91.5463 1009.68 91.423 1007.95 93.7641C1006.9 95.1194 1004.62 93.7025 1005.67 92.3471C1008.2 89.0204 1012.21 88.6508 1016.03 89.6365C1017.7 90.0061 1016.89 92.5936 1015.23 92.1623Z" fill="#2A2769"/>
<path d="M1020.9 100.972C1020.04 104.545 1019.61 108.118 1019.61 111.753C1019.18 111.383 1018.81 111.075 1018.37 110.706C1020.23 111.075 1020.97 111.322 1022.69 111.691C1023.93 111.938 1023.56 113.724 1022.32 113.478C1020.53 113.17 1020.47 113.232 1018.87 112.615C1018.25 112.369 1017.63 112.307 1017.63 111.568C1017.63 107.749 1018.07 103.991 1019.05 100.294C1019.3 99.1238 1021.21 99.7398 1020.9 100.972Z" fill="#2A2769"/>
<path d="M1000.85 85.3856C1003.26 94.5649 1006.22 103.621 1009.74 112.431C1012.76 119.947 1016.28 128.263 1023.74 132.453C1027.57 134.609 1032.25 135.533 1036.51 134.116C1037.93 133.623 1037.31 131.405 1035.89 131.898C1032.44 133.069 1028.74 132.453 1025.53 130.851C1022.08 129.126 1019.42 126.292 1017.39 123.088C1015.17 119.7 1013.62 115.942 1012.08 112.184C1010.42 107.995 1008.81 103.806 1007.39 99.4934C1005.79 94.6881 1004.31 89.7597 1003.08 84.8312C1002.71 83.3526 1000.48 83.9687 1000.85 85.3856Z" fill="#2A2769"/>
<path d="M1034.04 134.67C1038.24 134.178 1042.25 132.946 1046.01 131.036C1047.86 130.112 1049.59 129.003 1051.25 127.771C1052.98 126.477 1054.52 124.998 1056.44 124.074C1057.79 123.397 1056.62 121.425 1055.26 122.103C1053.41 123.027 1051.87 124.382 1050.27 125.676C1048.73 126.847 1047.06 127.955 1045.27 128.818C1041.75 130.666 1037.93 131.837 1033.98 132.329C1033.36 132.391 1032.81 132.822 1032.81 133.5C1032.87 134.054 1033.43 134.732 1034.04 134.67Z" fill="#2A2769"/>
<path d="M1045.39 129.865C1045.33 129.865 1045.33 129.865 1045.27 129.865C1045.58 130.05 1045.95 130.235 1046.26 130.42C1046.26 130.358 1046.26 130.358 1046.2 130.296C1046.26 130.481 1046.32 130.666 1046.38 130.851C1046.38 130.789 1046.38 130.789 1046.38 130.728C1046.26 130.974 1046.13 131.282 1046.07 131.529L1046.13 131.467C1045.89 131.59 1045.58 131.713 1045.33 131.775C1045.39 131.775 1045.46 131.775 1045.52 131.775C1045.33 131.713 1045.15 131.652 1044.96 131.59C1045.21 131.775 1045.58 132.514 1045.76 132.761C1046.07 133.254 1046.38 133.685 1046.75 134.178C1047.37 135.04 1047.99 135.964 1048.6 136.827C1049.84 138.613 1051.13 140.461 1052.37 142.248C1054.65 145.575 1056.81 149.271 1059.77 152.105C1060.88 153.152 1062.48 151.489 1061.43 150.442C1059.64 148.717 1058.23 146.684 1056.81 144.589C1055.26 142.371 1053.72 140.153 1052.18 137.874C1050.64 135.656 1049.1 133.438 1047.55 131.159C1046.94 130.296 1046.13 128.818 1044.84 129.496C1044.35 129.804 1044.04 130.42 1044.22 130.974C1044.41 131.59 1044.9 131.837 1045.46 131.898C1046.07 131.96 1046.63 131.344 1046.63 130.728C1046.57 130.296 1046.01 129.927 1045.39 129.865Z" fill="#2A2769"/>
<path d="M1072.23 98.631C1072.72 103.683 1073.71 108.673 1075.13 113.54C1075.81 115.881 1076.55 118.16 1077.53 120.44C1078.28 122.226 1079.32 124.136 1081.24 124.937C1081.79 125.183 1082.47 125.122 1082.84 124.506C1083.15 124.013 1083.03 123.15 1082.41 122.904C1080.8 122.226 1080.06 120.624 1079.51 119.084C1078.65 116.866 1077.9 114.649 1077.29 112.369C1075.99 107.872 1075.13 103.251 1074.64 98.631C1074.57 98.0149 1074.14 97.4604 1073.46 97.4604C1072.78 97.4604 1072.17 98.0149 1072.23 98.631Z" fill="#2A2769"/>
<path d="M1074.14 78.1162C1071.86 77.5618 1070.26 79.6564 1069.58 81.5662C1068.71 83.8456 1068.34 86.3714 1068.28 88.7741C1068.28 90.2526 1070.56 90.2526 1070.63 88.7741C1070.69 86.8027 1071 84.8929 1071.55 82.9831C1071.8 82.2438 1071.98 81.5662 1072.48 81.0117C1072.66 80.7653 1072.85 80.5805 1073.09 80.4573C1073.28 80.334 1073.4 80.334 1073.59 80.3956C1074.94 80.7037 1075.56 78.4243 1074.14 78.1162Z" fill="#2A2769"/>
<path d="M1043.79 130.05C1049.53 127.832 1053.29 122.103 1059.09 120.07C1059.89 119.823 1060.82 119.639 1061.43 120.131C1061.93 120.501 1062.11 121.117 1062.17 121.733C1062.73 125.122 1061.19 128.633 1058.9 131.221C1056.62 133.808 1053.66 135.656 1050.7 137.504" fill="#2A2769"/>
<path d="M1054.03 73.9886C1054.03 73.9886 1031.21 91.3615 1010.35 88.0348C989.504 84.7081 985.679 71.894 988.023 59.6961C990.367 47.4981 1009.61 36.5938 1019.61 36.5938C1019.61 36.5938 1037.37 22.9173 1051.69 20.6995C1066 18.4817 1078.21 31.9118 1078.21 31.9118C1078.21 31.9118 1080.06 14.6621 1095.49 13.738C1110.91 12.8139 1132.01 31.4805 1139.29 51.8105C1146.57 72.1405 1157.67 125.122 1192.46 116.62C1192.46 116.62 1187.65 137.689 1162.23 133.993C1136.82 130.296 1119.18 76.3913 1111.34 72.2637C1103.51 68.1361 1092.83 75.96 1092.83 75.96C1092.83 75.96 1090.18 103.498 1074.51 110.028L1073.28 98.1382C1073.28 98.1382 1082.72 88.0964 1077.6 76.3913C1072.48 64.6861 1065.26 80.7037 1065.26 80.7037C1065.26 80.7037 1063.28 65.9799 1054.03 73.9886Z" fill="#2A2769"/>
<path d="M1095.8 184.879C1095.8 184.879 1100.55 174.591 1102.4 165.597C1104.25 156.541 1114.3 169.416 1116.58 180.752C1118.87 192.087 1088.64 199.234 1088.64 199.234C1088.64 199.234 1092.83 189.685 1095.8 184.879Z" fill="#2A2769"/>
</svg>
